<?xml version="1.0" encoding="UTF-8"?><svg xmlns="http://www.w3.org/2000/svg" viewBox="0 0 216 216"><g id="a"><circle cx="108" cy="108" r="94.67" fill="#fff"/></g><g id="b"><path d="M96.96,20.88c.16,0,.32,0,.48,0h5.52c.8,0,1.6,0,2.4,0,10.03,1,21.84.5,31.48,3.79,10.13,3.46,20.02,12.77,28.26,19.46,9.74,7.91,17.17,13.83,20.64,26.14,3.24,11.48,5.37,23.16,7.71,34.84v11.76c-1.5,9.83-1.32,24.2-7.27,32.65-5.32,7.56-14.34,13.64-20.44,20.85-6.46,7.65-13.46,10.52-23.01,13.51-10.76,3.37-21.69,7.8-32.8,9.79h-7.2c-4.69-1.58-10.66-.91-15.6-1.71-5.1-.82-10.39-1.93-15.29-3.61-7.69-2.63-14.22-7.3-20.69-12.04-15.53-11.38-25.02-26.97-30.75-45.28,0-3.44,0-6.88,0-10.32.43-6.79.21-13.51.17-20.3-.03-5.5-1.12-12.18.27-17.54,2.83-10.92,12.61-21.45,19.54-29.98,3.3-4.06,6.15-8.91,10.4-11.99,4.26-3.09,9.33-5.45,13.98-7.9,10.22-5.38,20.7-10.6,32.2-12.13ZM80.24,105.82c2.74-.48,5.48-.56,8.11-1.5,1.52-.54,2.52-2.03,4.14-2.17-.47,4.31-.13,4.09,4.59,4.09-4.5-3.91.74-2.57,1.06-4.45.4-2.32-2.81-7.06-4.35-8.62-3.99-4.03-15.1-6.24-20.32-4.51-6.41,2.12-15.53,7.69-18.95,13.67-3.68,6.45,2.69,14.66-.1,20.87-1.22-1.68-.92-4.65-1.46-6.68-5.66,7.96,2.16,14.57,6.71,21.13,2.58,3.73,5.46,7.02,8.71,10.19,2.74,2.67,3.76,5.11,6.72,2.65.77,1.11.49,1.3,1.53,2.4.51-.79.92-1.64,1.2-2.54.83,1.5.42,1.12,1.53,2.13.35-.44.75-2.79,1.21-2.91.63-.17,1.2,1,1.63,1.28.47-.86.08-1.81.58-2.65.18-.31,1.31.5,1.8-.32,1.51-2.56,3.29-5.52,1.54-8.28-2.55,3.4-4.1,7.46-9.29,7.03-3.92-.32-6.77-3.9-9.08-6.69-3.31-4.01-5.85-8-7.69-12.88-2.16-5.71-.81-6.08,3.58-10.12-8.71-.58-7.31-11.71-5.5-17.05,2.07,1.55.95,3.86,3.21,5.05,1.06.56,3.99.26,5.21.45,0,.06.01.13.02.19-.82.24-1.64.47-2.45.71.02.14.04.28.05.42,3.6,0,12.89,1.72,15.96-.79.03-.05.06-.09.1-.12ZM113.54,109.69c2.18,2.18,5.02,6.31,7.92,7.38-1.45-4.86-8.85-10.23-12.42-13.77,1.35,1.99,4.57,4.14,5.09,6.41-.19-.02-.38-.04-.56-.06-4.21-4.5-11.17-14.88-17.23-16.35.21,3.24,3.42,5.8,3.61,8.96.23,3.91-2.96,3.97-4.39,6.76-2.09,4.08,3.63,12.49,5.84,17.08,2.92,6.08,7.91,14.02,7.81,21.01-.11,7.68-5.2,4.78-9.14,1.56-.71-.58-13.97-12.56-11.38-5.35.41,1.14,4.14,2.65,5,3.94,1.49,2.23,2.81,7.29,2.57,10.07-.52,6.01-8.55,10.19-4.49,17.18,1.37,2.36,4.73,2.94,5.56-.77.25-1.11-2.25-3.5-1.42-4.16,3.07-2.45,5.93,5.87,5.49,7.74-1.04,4.42-3.58,3.5-7.25,3.71.83,11.19,28.71,5.54,36,3.53,11.83-3.27,25.34-12.17,34.43-20.28,7.15-6.38,16.59-14.88,19.29-24.46,1.53-5.44.74-11.6,1.72-17.22,1.11-6.38,2.19-13.13,2.08-19.62-.18-11.18-3.94-27.31-9.38-37.13-5.05-9.13-16.61-17.2-24.41-23.96-8.68-7.53-16.23-10.13-27.39-12.5-11.6-2.47-24.34-4.84-36.12-1.99-12.98,3.14-24.91,7.59-35.07,16.24-7.22,6.15-15.22,13.18-18.6,22.25,3.04-.88,5.32-3.74,8.29-4.88,3.08-1.18,5.6-1.43,8.55-3.31,6.2-3.94,8.44-2.31,14.6,1.81,6.4,4.27,10.94,7.15,17.74,1.74,5.39-4.29,9.09-10.68,13.53-15.86,10.06-11.73,26.17-7.37,39.43-6.15,2,.18,7.15.13,7.27,2.24.09,1.52-8.63,5.39-10.01,6.18-1.49.86-17.34,12-18.51,11.18-1.26-.89,2.95-6.1-.07-8-3.22-2.03-5.4,3.84-7.04,5.23-.99-1.56-1.01-4.5-3.65-2.86-2.08,1.29-.67,3.02.56,4.07-4.77,2.63-7.65,3.08-8.72,8.99-.88,4.85.43,8.98,1.58,13.52,1.58,6.26,2.32,7.45,7.32,11.98,4.05,3.66,8.05,7.35,12.06,11.04,2.38,2.2,16.7,15.64,12.08,18.27-1.47.84-9.27-1.95-10.78-2.75-2.16-1.14-7.59-6.35-7.91-8.91.17.1.33.2.5.29ZM51.33,94.12c7.24-2.46,13.04-6.1,20.63-7.77,4.72-1.03,7.66-1.71,12.25-.39,2.91.83,5.86,2.58,8.89,2.75-2.21-6.13-9.74-12.25-14.22-16.92-4.59-4.78-8.31-10.14-14.11-13.55-5.85-3.44-11.97.5-17.7,3.32-2.44,1.2-13.14,8.01-11.47,11.9.38.89,15.03-8.26,17.02-7.74-2.54,3.61-13.65,7.23-14.31,11.96-.67,4.79,3.57,4.47,6.51,2.65,5.7-3.52,19.08-16.86,25.77-9.21-6.98,2.65-13.49,4.58-20.05,8.65-3.57,2.22-7.33,3.04-6.45,7.02.72,3.28,4.67,5.73,7.24,7.35ZM108.16,146.98c-1.72-7.56-5.24-15.05-8.6-21.98-1.68-3.46-5.34-13.75-9.19-14.66-7-1.66-5.66,5.82-3.99,9.18,2.42,4.87,8.55,9.44,9.24,14.96-6.31-3.25-12.27-9.94-18.06-14.21-1.94-1.43-6.29-5.98-8.8-2.72-1.96,2.55,2.86,4.53,4.83,5.98,6.35,4.66,12.4,9.48,18.37,14.6,1.49,1.27,16.3,14.42,16.19,8.84ZM78.41,174.92s.08.09.12.13c4.46-3.76,12.69-8.93,14.76-14.72,1.49-4.18-1.26-13.25-5.37-15.14-.66,4.6,4.19,8.06-1.21,11.24-3.34,1.97-8.8,1.07-12.27-.04-9.3-2.97-16.32-12.9-22.52-19.94,0,3.67-1.2,8.04.33,11.31,1.61,3.43,6.92,7.52,9.91,9.75,3.82,2.85,8.11,5.6,12.75,6.8,5.16,1.33,9.09-.88,13.8-.44-.46,3.04-8.29,8.83-10.3,11.03ZM144.33,40.72c-11.81-.67-27-4.72-37.71,2.18-5.54,3.57-8.55,10.52-12.85,15.55-1.68,1.97-3.38,3.61-5.49,5.15-1.29.95-6.4,3-6.92,4.44-.1.26,7.51,6.62,8.14,6.6,2.7-.09,3.58-3.27,5.22-5.96,3.82-6.26,7.33-12.78,12.49-18.07,4.53-4.64,8.91-8.29,15.57-8.7,7.3-.45,14.76,3.11,21.56-1.2ZM56.27,96.95c.03.05.07.1.1.15-6.62,5.76-7.87,13.84-13.23,20.65-2.38,3.02-6.06,5.71-7.69,9.29-1.45,3.18-2.1,7.81-2.84,11.33-.51,2.45-1.28,6.64,2.02,3.92,2.59-2.12,3.04-9.31,3.92-12.43,1.22-4.34,3.38-6.85,5.79-10.56,1.26-1.93,1.88-5.91,3.71-7.19,1.54,2.4-2.72,9.41-3.58,11.83-1.79,5.04-1.76,9.57-2.21,14.82-.26,3.06-4,9.79-3.6,12.09.15.88,2.98,4.21,3.73,4.28,1.71.14.8-.32,2.2-1.22,3.06-1.95,3.51-11.84,3.77-15.13.41-5.07-2.1-10.87-1.17-15.59.77-3.92,3.19-7.31,3.82-11.52.9-6.04,1.55-9.78,5.25-14.72ZM48.49,99.13c-1.18-4.85-3.9-9.41-7.4-12.92-1.44-1.45-8.23-7.66-10.05-6.67-5.41,2.94,5.37,12.66,6.93,14.49,1.19,1.4,6.92,10.46,8.55,10.36.72-.05,1.91-5.05,1.98-5.26ZM26.62,126.23c3.73-5.24-1.85-9.27.23-13.14,1.15-2.15,3.39-2.08,5.59-.28-1.47.34-2.49-.35-3.95.31,2.98,2.99,17.37-.26,7.3-2.33-4.08-.84-7.36.37-8.08-3.34-.29-1.48,1.59-4.16,1.35-6.24,0,.04-2.47-5.46-1.48-5.88,4.34-1.82,2.83,11.76,3.08,12.21.26.46,9.81,1.83,10.91,2.28-2.32-2.72-6.13-1.38-7.86-3.32-1.08-1.21.04-2.6-.12-3.74-.62-4.2-2.9-7.45-7.21-10.14-.91,11.23-.81,22.36.25,33.6ZM66.26,174.6c-.04.06-.08.12-.11.18,3.99,2.96,7.39,5.15,12.16,6.69,1.51.49,5.64,3.26,6.81,3.03.23-.42.3-.87.21-1.35,2.38,1.28,4.26,1.14,6.9,1.93-.34-2.08-3.71-13.74-5.29-14.39-1.47-.61-8.34,6.98-10.16,7.68-4.03,1.56-6.7-1.5-10.51-3.78ZM100.69,87.38s-.09.09-.14.14c3.66,4.84,8.69,8.73,12.73,13.26,1.68,1.89,9.58,13.53,11.46,12.93,6.76-2.18-5.13-9.62-6.98-11.23-5.72-4.99-11.23-10.27-17.08-15.09ZM44.5,112.62c-1.76.09-8.34,5.58-9.63,6.77-2.65,2.44-6.3,7.91-6.9,11.59,3.18-1.39,6.15-6.77,8.67-9.23,2.92-2.85,5.59-5.69,7.85-9.13ZM58.15,111.33c-.04,5.77,10.11,5.59,13.25,2.8-1.94-1.21-4.99.07-7.23-1.21-1.16-.67-3.51-4.87-4.18-4.95-1.05-.13-1.89,2.88-1.85,3.35ZM77.7,141.54c3.59.38,3.11-10.86-1.01-9.48-3.05,1.02-2.94,8.89,1.01,9.48ZM70.03,136.17c.76,4.99,3.59,4.37,4.51-.19,1.52-7.55-4.61-6.83-4.51.19ZM69.05,112.51c2.52-.14,5.72-1.22,6.96-3.59-2.77-1.22-3.99,1.25-6.55,1.55-2.83.33-4.78-1.67-7.43-1.93,1.14,2.7,4.39,3.54,7.03,3.97ZM65.37,131.07c0-.21,1.47,5.13,2.51,4.09,2.71-2.67,1.1-5.99-1.29-7.47-.89,1.02-1.29,2.14-1.22,3.37ZM80.72,138.15c0,2.46,2.06,5.26,3.34,1.6.29-.82-2.21-5.39-3.19-4.55-.31.95-.36,1.93-.15,2.95ZM125.83,115.35c1.01,3.81,6.76,4.42,2.02-2.56-1.11.53-1.79,1.38-2.02,2.56ZM77.05,143.28c0-.05-.02-.11-.02-.16-1.14-.27-2.22-.18-3.23.27,2.35,2.36,6.92,2.37,8.8-.46-1.85-.37-3.69.1-5.55.35ZM64.8,122.65c2.03,1.08,5.04,3.47,7.34,3.53-1.27-2.46-4.63-4.19-7.34-3.53ZM87.29,123.57c-1.28-2.76-2.75-8.05-4.88-10.16-1.3,2.12,3.33,8.66,4.88,10.16ZM64.36,130.24c.36-1.05,1.37-6.65-2.1-4.95-.37.18,2.2,5.17,2.1,4.95ZM36.94,145.69c-1.91.31-2.2.82-1.23,2.55.86-.66,1.47-1.07,2.26-1.85-.39-.26-.78-.53-1.03-.7ZM33.17,116.77c-.8-1.15-2.37-1.38-3.57-.5,1.42,1.21,2.09,2.05,3.57.5ZM83.73,120.28l.3-.16c-1.03-1.84-2.05-3.68-3.08-5.52-.08.04-.15.08-.23.12.59,2.08,1.75,3.84,3.01,5.56ZM35.41,71.04c-.13-.08-.25-.16-.38-.24-.69,1.27-1.59,2.56-1.84,3.99,1.32-.77,1.64-2.38,2.22-3.76ZM68.24,109.43c.03.07.06.14.09.22,1.3.28,2.34-.01,3.13-.89-1.11-.41-2.18-.18-3.22.68ZM51.91,164.45c-.07.09-.13.18-.2.27.6.42,1.21.84,1.81,1.27l.2-.27c-.6-.42-1.21-.84-1.81-1.27ZM55.33,167.05c-.04.06-.09.12-.13.18.73.56,1.47,1.12,2.2,1.69.04-.05.08-.1.12-.16-.73-.57-1.46-1.14-2.18-1.71ZM65.09,108.17c-.07.07-.14.13-.2.2.47.3.94.59,1.4.89.04-.07.09-.13.13-.2l-1.33-.89ZM98.87,85.98c.06-.06.13-.13.19-.19-.26-.18-.52-.36-.79-.54,0,.04-.02.07-.04.19.19.16.42.35.64.54ZM132.54,119.31c-.32-.32-.61-.33-.85-.03.23.4.51.4.85.03ZM106.69,100.73l.14-.16c-.22-.2-.45-.41-.67-.61-.04.05-.09.09-.13.14l.66.63ZM98.98,91.53s-.09.08-.13.12c.23.21.45.42.68.63.05-.05.09-.1.14-.15-.23-.2-.46-.41-.68-.61ZM107.92,102.17c.03-.05.06-.1.1-.15l-.44-.42s-.06.07-.1.1c.15.16.3.31.44.47Z"/><path d="M81.55,103.12c-4.1-.49-7.65-.91-11.77-.19-2.43.42-5.44,1.98-7.91,1.56,5.2-8.01,18.88-4.6,26.54-4.7-1.25,2.61-4.18,3.36-6.86,3.33Z"/><path d="M80.14,105.94h-2.74c1.22-.85,2.09-.83,2.84-.12-.04.04-.07.08-.1.12Z"/><path d="M87.42,118.26c1.21,1.29,3.63,5.11,3.51,6.9-1.48-1.11-3.45-5.02-3.76-6.84l.24-.06Z"/></g></svg>